<svg width="28" height="29" viewBox="0 0 28 29" fill="none" xmlns="http://www.w3.org/2000/svg">
<rect x="0.5" y="1" width="27" height="27" rx="13.5" fill="white"/>
<g clip-path="url(#clip0_1_19)">
<path fill-rule="evenodd" clip-rule="evenodd" d="M19.8491 10.0486C19.897 10.0008 19.9349 9.94392 19.9609 9.88135C19.9868 9.81879 20.0001 9.75173 20.0001 9.68402C20.0001 9.6163 19.9868 9.54924 19.9609 9.48668C19.9349 9.42412 19.897 9.36727 19.8491 9.31939C19.8012 9.2715 19.7443 9.23352 19.6818 9.2076C19.6192 9.18169 19.5522 9.16835 19.4844 9.16835C19.4167 9.16835 19.3497 9.18169 19.2871 9.2076C19.2245 9.23352 19.1677 9.2715 19.1198 9.31939L14.3343 14.1059L9.54875 9.31939C9.50087 9.2715 9.44402 9.23352 9.38146 9.2076C9.3189 9.18169 9.25184 9.16835 9.18412 9.16835C9.11641 9.16835 9.04935 9.18169 8.98679 9.2076C8.92422 9.23352 8.86738 9.2715 8.81949 9.31939C8.77161 9.36727 8.73362 9.42412 8.70771 9.48668C8.6818 9.54924 8.66846 9.6163 8.66846 9.68402C8.66846 9.75173 8.6818 9.81879 8.70771 9.88135C8.73362 9.94392 8.77161 10.0008 8.81949 10.0486L13.6061 14.8342L8.81949 19.6197C8.72279 19.7164 8.66846 19.8476 8.66846 19.9843C8.66846 20.1211 8.72279 20.2523 8.81949 20.349C8.9162 20.4457 9.04736 20.5 9.18412 20.5C9.32089 20.5 9.45205 20.4457 9.54875 20.349L14.3343 15.5624L19.1198 20.349C19.2165 20.4457 19.3477 20.5 19.4844 20.5C19.6212 20.5 19.7524 20.4457 19.8491 20.349C19.9458 20.2523 20.0001 20.1211 20.0001 19.9843C20.0001 19.8476 19.9458 19.7164 19.8491 19.6197L15.0625 14.8342L19.8491 10.0486Z" fill="#909294"/>
</g>
<rect x="0.5" y="1" width="27" height="27" rx="13.5" stroke="#909294"/>
<defs>
<clipPath id="clip0_1_19">
<rect width="12" height="12" fill="white" transform="translate(8 8.5)"/>
</clipPath>
</defs>
</svg>
